<svg xmlns="http://www.w3.org/2000/svg" width="176" height="140" viewBox="0 0 176 140">
  <rect width="176" height="140" fill="#fff"/>
  <g transform="translate(24 24)"><rect x="1" y="1" width="126" height="62" rx="7" fill="#f7f7f5" stroke="#666" stroke-width="2.4"/><g transform="translate(35.84 -18) rotate(0)"><rect x="-17" y="-19" width="34" height="38" rx="6" fill="none" stroke="#777" stroke-width="2"/><line x1="-12" y1="-12" x2="12" y2="-12" stroke="#999" stroke-width="2"/></g><g transform="translate(92.16 -18) rotate(0)"><rect x="-17" y="-19" width="34" height="38" rx="6" fill="none" stroke="#777" stroke-width="2"/><line x1="-12" y1="-12" x2="12" y2="-12" stroke="#999" stroke-width="2"/></g><g transform="translate(35.84 82) rotate(180)"><rect x="-17" y="-19" width="34" height="38" rx="6" fill="none" stroke="#777" stroke-width="2"/><line x1="-12" y1="-12" x2="12" y2="-12" stroke="#999" stroke-width="2"/></g><g transform="translate(92.16 82) rotate(180)"><rect x="-17" y="-19" width="34" height="38" rx="6" fill="none" stroke="#777" stroke-width="2"/><line x1="-12" y1="-12" x2="12" y2="-12" stroke="#999" stroke-width="2"/></g><g transform="translate(-18 32) rotate(90)"><rect x="-17" y="-19" width="34" height="38" rx="6" fill="none" stroke="#777" stroke-width="2"/><line x1="-12" y1="-12" x2="12" y2="-12" stroke="#999" stroke-width="2"/></g><g transform="translate(146 32) rotate(-90)"><rect x="-17" y="-19" width="34" height="38" rx="6" fill="none" stroke="#777" stroke-width="2"/><line x1="-12" y1="-12" x2="12" y2="-12" stroke="#999" stroke-width="2"/></g></g>
  <text x="88" y="132" text-anchor="middle" font-family="Microsoft YaHei,Noto Sans CJK SC,Arial,sans-serif" font-size="12" fill="#333">DT-6-160｜1600×800</text>
  </svg>