<svg xmlns="http://www.w3.org/2000/svg" width="1660" height="1751" viewBox="0 0 1660 1751"><rect width="1660" height="1751" fill="#f6f6f4"/><text x="42" y="48" font-family="Microsoft YaHei,Noto Sans CJK SC,Arial,sans-serif" font-size="30" font-weight="700">住宅 CAD 家具图块库 V01</text><text x="42" y="76" font-family="Microsoft YaHei,Noto Sans CJK SC,Arial,sans-serif" font-size="14" fill="#666">俯视符号｜尺寸单位 mm｜图形按统一比例生成｜操作净距见 JSON</text><g transform="translate(42 105)"><rect width="250" height="210" rx="8" fill="#fff" stroke="#ddd"/><text x="14" y="24" font-family="Microsoft YaHei,Noto Sans CJK SC,Arial,sans-serif" font-size="14" font-weight="700">BED-09｜单人床900</text><g transform="translate(96.42857142857143 40) scale(0.7142857142857143)"><rect x="1" y="1" width="78" height="166" rx="6" fill="#f7f7f5" stroke="#666" stroke-width="2.4"/><rect x="4" y="7" width="72" height="160" rx="4" fill="none" stroke="#aaa" stroke-width="1.8"/><rect x="18.4" y="15" width="43.199999999999996" height="28.799999999999997" rx="5" fill="none" stroke="#888" stroke-width="2"/></g><text x="125" y="184" text-anchor="middle" font-family="Microsoft YaHei,Noto Sans CJK SC,Arial,sans-serif" font-size="12" fill="#555">床垫900×2000</text><text x="125" y="201" text-anchor="middle" font-family="Microsoft YaHei,Noto Sans CJK SC,Arial,sans-serif" font-size="10" fill="#888">床具</text></g><g transform="translate(310 105)"><rect width="250" height="210" rx="8" fill="#fff" stroke="#ddd"/><text x="14" y="24" font-family="Microsoft YaHei,Noto Sans CJK SC,Arial,sans-serif" font-size="14" font-weight="700">BED-12｜单人床1200</text><g transform="translate(87.85714285714286 40) scale(0.7142857142857143)"><rect x="1" y="1" width="102" height="166" rx="6" fill="#f7f7f5" stroke="#666" stroke-width="2.4"/><rect x="4" y="7" width="96" height="160" rx="4" fill="none" stroke="#aaa" stroke-width="1.8"/><rect x="23.200000000000003" y="15" width="57.599999999999994" height="28.799999999999997" rx="5" fill="none" stroke="#888" stroke-width="2"/></g><text x="125" y="184" text-anchor="middle" font-family="Microsoft YaHei,Noto Sans CJK SC,Arial,sans-serif" font-size="12" fill="#555">床垫1200×2000</text><text x="125" y="201" text-anchor="middle" font-family="Microsoft YaHei,Noto Sans CJK SC,Arial,sans-serif" font-size="10" fill="#888">床具</text></g><g transform="translate(578 105)"><rect width="250" height="210" rx="8" fill="#fff" stroke="#ddd"/><text x="14" y="24" font-family="Microsoft YaHei,Noto Sans CJK SC,Arial,sans-serif" font-size="14" font-weight="700">BED-135｜单人床1350</text><g transform="translate(83.57142857142857 40) scale(0.7142857142857143)"><rect x="1" y="1" width="114" height="166" rx="6" fill="#f7f7f5" stroke="#666" stroke-width="2.4"/><rect x="4" y="7" width="108" height="160" rx="4" fill="none" stroke="#aaa" stroke-width="1.8"/><rect x="12" y="15" width="42" height="28.799999999999997" rx="5" fill="none" stroke="#888" stroke-width="2"/><rect x="62" y="15" width="42" height="28.799999999999997" rx="5" fill="none" stroke="#888" stroke-width="2"/></g><text x="125" y="184" text-anchor="middle" font-family="Microsoft YaHei,Noto Sans CJK SC,Arial,sans-serif" font-size="12" fill="#555">床垫1350×2000</text><text x="125" y="201" text-anchor="middle" font-family="Microsoft YaHei,Noto Sans CJK SC,Arial,sans-serif" font-size="10" fill="#888">床具</text></g><g transform="translate(846 105)"><rect width="250" height="210" rx="8" fill="#fff" stroke="#ddd"/><text x="14" y="24" font-family="Microsoft YaHei,Noto Sans CJK SC,Arial,sans-serif" font-size="14" font-weight="700">BED-15｜双人床1500</text><g transform="translate(79.28571428571428 40) scale(0.7142857142857143)"><rect x="1" y="1" width="126" height="166" rx="6" fill="#f7f7f5" stroke="#666" stroke-width="2.4"/><rect x="4" y="7" width="120" height="160" rx="4" fill="none" stroke="#aaa" stroke-width="1.8"/><rect x="12" y="15" width="48" height="28.799999999999997" rx="5" fill="none" stroke="#888" stroke-width="2"/><rect x="68" y="15" width="48" height="28.799999999999997" rx="5" fill="none" stroke="#888" stroke-width="2"/></g><text x="125" y="184" text-anchor="middle" font-family="Microsoft YaHei,Noto Sans CJK SC,Arial,sans-serif" font-size="12" fill="#555">床垫1500×2000</text><text x="125" y="201" text-anchor="middle" font-family="Microsoft YaHei,Noto Sans CJK SC,Arial,sans-serif" font-size="10" fill="#888">床具</text></g><g transform="translate(1114 105)"><rect width="250" height="210" rx="8" fill="#fff" stroke="#ddd"/><text x="14" y="24" font-family="Microsoft YaHei,Noto Sans CJK SC,Arial,sans-serif" font-size="14" font-weight="700">BED-18｜双人床1800</text><g transform="translate(70.71428571428572 40) scale(0.7142857142857143)"><rect x="1" y="1" width="150" height="166" rx="6" fill="#f7f7f5" stroke="#666" stroke-width="2.4"/><rect x="4" y="7" width="144" height="160" rx="4" fill="none" stroke="#aaa" stroke-width="1.8"/><rect x="12" y="15" width="60" height="28.799999999999997" rx="5" fill="none" stroke="#888" stroke-width="2"/><rect x="80" y="15" width="60" height="28.799999999999997" rx="5" fill="none" stroke="#888" stroke-width="2"/></g><text x="125" y="184" text-anchor="middle" font-family="Microsoft YaHei,Noto Sans CJK SC,Arial,sans-serif" font-size="12" fill="#555">床垫1800×2000</text><text x="125" y="201" text-anchor="middle" font-family="Microsoft YaHei,Noto Sans CJK SC,Arial,sans-serif" font-size="10" fill="#888">床具</text></g><g transform="translate(1382 105)"><rect width="250" height="210" rx="8" fill="#fff" stroke="#ddd"/><text x="14" y="24" font-family="Microsoft YaHei,Noto Sans CJK SC,Arial,sans-serif" font-size="14" font-weight="700">BED-WALL-12｜壁床1200</text><g transform="translate(71 82) scale(1)"><rect x="1" y="1" width="106" height="34" fill="#eee" stroke="#666" stroke-width="2.4"/><line x1="36" y1="2" x2="36" y2="34" stroke="#999" stroke-width="1.5"/><line x1="72" y1="2" x2="72" y2="34" stroke="#999" stroke-width="1.5"/><path d="M2 36 L54 79.2 L106 36" fill="none" stroke="#999" stroke-width="1.5" stroke-dasharray="5 4"/></g><text x="125" y="184" text-anchor="middle" font-family="Microsoft YaHei,Noto Sans CJK SC,Arial,sans-serif" font-size="12" fill="#555">柜体1350×450，展开约1350×2150</text><text x="125" y="201" text-anchor="middle" font-family="Microsoft YaHei,Noto Sans CJK SC,Arial,sans-serif" font-size="10" fill="#888">床具</text></g><g transform="translate(42 333)"><rect width="250" height="210" rx="8" fill="#fff" stroke="#ddd"/><text x="14" y="24" font-family="Microsoft YaHei,Noto Sans CJK SC,Arial,sans-serif" font-size="14" font-weight="700">WARD-60｜平开门衣柜</text><g transform="translate(77 76) scale(1)"><rect x="1" y="1" width="94" height="46" fill="#eee" stroke="#666" stroke-width="2.4"/><line x1="48" y1="2" x2="48" y2="46" stroke="#999" stroke-width="1.5"/><path d="M2 48 A48 48 0 0 0 50 2 M94 48 A48 48 0 0 1 46 2" fill="none" stroke="#aaa" stroke-width="1.2" stroke-dasharray="4 3"/></g><text x="125" y="184" text-anchor="middle" font-family="Microsoft YaHei,Noto Sans CJK SC,Arial,sans-serif" font-size="12" fill="#555">1200×600</text><text x="125" y="201" text-anchor="middle" font-family="Microsoft YaHei,Noto Sans CJK SC,Arial,sans-serif" font-size="10" fill="#888">柜体收纳</text></g><g transform="translate(310 333)"><rect width="250" height="210" rx="8" fill="#fff" stroke="#ddd"/><text x="14" y="24" font-family="Microsoft YaHei,Noto Sans CJK SC,Arial,sans-serif" font-size="14" font-weight="700">WARD-S65｜推拉门衣柜</text><g transform="translate(77 74) scale(1)"><rect x="1" y="1" width="94" height="50" fill="#eee" stroke="#666" stroke-width="2.4"/><line x1="24" y1="18.2" x2="72" y2="18.2" stroke="#888" stroke-width="2"/><path d="M24 18.2 l10 -6 M24 18.2 l10 6 M72 18.2 l-10 -6 M72 18.2 l-10 6" stroke="#888" stroke-width="1.5"/></g><text x="125" y="184" text-anchor="middle" font-family="Microsoft YaHei,Noto Sans CJK SC,Arial,sans-serif" font-size="12" fill="#555">1200×650</text><text x="125" y="201" text-anchor="middle" font-family="Microsoft YaHei,Noto Sans CJK SC,Arial,sans-serif" font-size="10" fill="#888">柜体收纳</text></g><g transform="translate(578 333)"><rect width="250" height="210" rx="8" fill="#fff" stroke="#ddd"/><text x="14" y="24" font-family="Microsoft YaHei,Noto Sans CJK SC,Arial,sans-serif" font-size="14" font-weight="700">NST-45｜床头柜</text><g transform="translate(107 84) scale(1)"><rect x="1" y="1" width="34" height="30" rx="3" fill="#eee" stroke="#666" stroke-width="2.4"/><circle cx="18" cy="8.96" r="2.5" fill="#888"/><line x1="3" y1="16" x2="33" y2="16" stroke="#aaa"/></g><text x="125" y="184" text-anchor="middle" font-family="Microsoft YaHei,Noto Sans CJK SC,Arial,sans-serif" font-size="12" fill="#555">450×400</text><text x="125" y="201" text-anchor="middle" font-family="Microsoft YaHei,Noto Sans CJK SC,Arial,sans-serif" font-size="10" fill="#888">柜体收纳</text></g><g transform="translate(846 333)"><rect width="250" height="210" rx="8" fill="#fff" stroke="#ddd"/><text x="14" y="24" font-family="Microsoft YaHei,Noto Sans CJK SC,Arial,sans-serif" font-size="14" font-weight="700">DRESS-100｜梳妆台1000</text><g transform="translate(85 82) scale(1)"><rect x="1" y="1" width="78" height="34" rx="3" fill="#f7f7f5" stroke="#666" stroke-width="2.4"/><g transform="translate(40 61) rotate(0)"><rect x="-15" y="-17" width="30" height="34" rx="6" fill="none" stroke="#777" stroke-width="2"/><line x1="-10" y1="-10" x2="10" y2="-10" stroke="#999" stroke-width="2"/></g></g><text x="125" y="184" text-anchor="middle" font-family="Microsoft YaHei,Noto Sans CJK SC,Arial,sans-serif" font-size="12" fill="#555">1000×450</text><text x="125" y="201" text-anchor="middle" font-family="Microsoft YaHei,Noto Sans CJK SC,Arial,sans-serif" font-size="10" fill="#888">柜体收纳</text></g><g transform="translate(1114 333)"><rect width="250" height="210" rx="8" fill="#fff" stroke="#ddd"/><text x="14" y="24" font-family="Microsoft YaHei,Noto Sans CJK SC,Arial,sans-serif" font-size="14" font-weight="700">BOOK-30｜开放书柜</text><g transform="translate(77 86) scale(1)"><rect x="1" y="1" width="94" height="26" fill="#eee" stroke="#666" stroke-width="2.4"/><line x1="32" y1="2" x2="32" y2="26" stroke="#aaa"/><line x1="64" y1="2" x2="64" y2="26" stroke="#aaa"/></g><text x="125" y="184" text-anchor="middle" font-family="Microsoft YaHei,Noto Sans CJK SC,Arial,sans-serif" font-size="12" fill="#555">1200×300</text><text x="125" y="201" text-anchor="middle" font-family="Microsoft YaHei,Noto Sans CJK SC,Arial,sans-serif" font-size="10" fill="#888">柜体收纳</text></g><g transform="translate(1382 333)"><rect width="250" height="210" rx="8" fill="#fff" stroke="#ddd"/><text x="14" y="24" font-family="Microsoft YaHei,Noto Sans CJK SC,Arial,sans-serif" font-size="14" font-weight="700">SHOE-25｜超薄鞋柜</text><g transform="translate(85 86) scale(1)"><rect x="1" y="1" width="78" height="26" fill="#eee" stroke="#666" stroke-width="2.4"/><line x1="26.666666666666668" y1="2" x2="26.666666666666668" y2="26" stroke="#aaa"/><line x1="53.333333333333336" y1="2" x2="53.333333333333336" y2="26" stroke="#aaa"/></g><text x="125" y="184" text-anchor="middle" font-family="Microsoft YaHei,Noto Sans CJK SC,Arial,sans-serif" font-size="12" fill="#555">1000×250</text><text x="125" y="201" text-anchor="middle" font-family="Microsoft YaHei,Noto Sans CJK SC,Arial,sans-serif" font-size="10" fill="#888">柜体收纳</text></g><g transform="translate(42 561)"><rect width="250" height="210" rx="8" fill="#fff" stroke="#ddd"/><text x="14" y="24" font-family="Microsoft YaHei,Noto Sans CJK SC,Arial,sans-serif" font-size="14" font-weight="700">SHOE-35｜标准鞋柜</text><g transform="translate(85 86) scale(1)"><rect x="1" y="1" width="78" height="26" fill="#eee" stroke="#666" stroke-width="2.4"/><line x1="26.666666666666668" y1="2" x2="26.666666666666668" y2="26" stroke="#aaa"/><line x1="53.333333333333336" y1="2" x2="53.333333333333336" y2="26" stroke="#aaa"/></g><text x="125" y="184" text-anchor="middle" font-family="Microsoft YaHei,Noto Sans CJK SC,Arial,sans-serif" font-size="12" fill="#555">1000×350</text><text x="125" y="201" text-anchor="middle" font-family="Microsoft YaHei,Noto Sans CJK SC,Arial,sans-serif" font-size="10" fill="#888">柜体收纳</text></g><g transform="translate(310 561)"><rect width="250" height="210" rx="8" fill="#fff" stroke="#ddd"/><text x="14" y="24" font-family="Microsoft YaHei,Noto Sans CJK SC,Arial,sans-serif" font-size="14" font-weight="700">DB-40｜餐边柜</text><g transform="translate(61 84) scale(1)"><rect x="1" y="1" width="126" height="30" fill="#eee" stroke="#666" stroke-width="2.4"/><line x1="42.666666666666664" y1="2" x2="42.666666666666664" y2="30" stroke="#aaa"/><line x1="85.33333333333333" y1="2" x2="85.33333333333333" y2="30" stroke="#aaa"/></g><text x="125" y="184" text-anchor="middle" font-family="Microsoft YaHei,Noto Sans CJK SC,Arial,sans-serif" font-size="12" fill="#555">1600×400</text><text x="125" y="201" text-anchor="middle" font-family="Microsoft YaHei,Noto Sans CJK SC,Arial,sans-serif" font-size="10" fill="#888">柜体收纳</text></g><g transform="translate(578 561)"><rect width="250" height="210" rx="8" fill="#fff" stroke="#ddd"/><text x="14" y="24" font-family="Microsoft YaHei,Noto Sans CJK SC,Arial,sans-serif" font-size="14" font-weight="700">BENCH-80｜换鞋凳</text><g transform="translate(93 86) scale(1)"><rect x="1" y="1" width="62" height="26" rx="5" fill="#f7f7f5" stroke="#666" stroke-width="2.4"/><line x1="9.6" y1="7" x2="54.4" y2="7" stroke="#aaa" stroke-width="2"/></g><text x="125" y="184" text-anchor="middle" font-family="Microsoft YaHei,Noto Sans CJK SC,Arial,sans-serif" font-size="12" fill="#555">800×350</text><text x="125" y="201" text-anchor="middle" font-family="Microsoft YaHei,Noto Sans CJK SC,Arial,sans-serif" font-size="10" fill="#888">柜体收纳</text></g><g transform="translate(846 561)"><rect width="250" height="210" rx="8" fill="#fff" stroke="#ddd"/><text x="14" y="24" font-family="Microsoft YaHei,Noto Sans CJK SC,Arial,sans-serif" font-size="14" font-weight="700">CLEAN-60｜清洁高柜</text><g transform="translate(101 76) scale(1)"><rect x="1" y="1" width="46" height="46" fill="#eee" stroke="#666" stroke-width="2.4"/><line x1="16" y1="2" x2="16" y2="46" stroke="#aaa"/><line x1="32" y1="2" x2="32" y2="46" stroke="#aaa"/></g><text x="125" y="184" text-anchor="middle" font-family="Microsoft YaHei,Noto Sans CJK SC,Arial,sans-serif" font-size="12" fill="#555">600×600</text><text x="125" y="201" text-anchor="middle" font-family="Microsoft YaHei,Noto Sans CJK SC,Arial,sans-serif" font-size="10" fill="#888">柜体收纳</text></g><g transform="translate(1114 561)"><rect width="250" height="210" rx="8" fill="#fff" stroke="#ddd"/><text x="14" y="24" font-family="Microsoft YaHei,Noto Sans CJK SC,Arial,sans-serif" font-size="14" font-weight="700">DESK-100｜书桌1000</text><g transform="translate(85 76) scale(1)"><rect x="1" y="1" width="78" height="46" rx="3" fill="#f7f7f5" stroke="#666" stroke-width="2.4"/><g transform="translate(40 73) rotate(0)"><rect x="-15" y="-17" width="30" height="34" rx="6" fill="none" stroke="#777" stroke-width="2"/><line x1="-10" y1="-10" x2="10" y2="-10" stroke="#999" stroke-width="2"/></g></g><text x="125" y="184" text-anchor="middle" font-family="Microsoft YaHei,Noto Sans CJK SC,Arial,sans-serif" font-size="12" fill="#555">1000×600</text><text x="125" y="201" text-anchor="middle" font-family="Microsoft YaHei,Noto Sans CJK SC,Arial,sans-serif" font-size="10" fill="#888">书桌办公</text></g><g transform="translate(1382 561)"><rect width="250" height="210" rx="8" fill="#fff" stroke="#ddd"/><text x="14" y="24" font-family="Microsoft YaHei,Noto Sans CJK SC,Arial,sans-serif" font-size="14" font-weight="700">DESK-120｜书桌1200</text><g transform="translate(77 76) scale(1)"><rect x="1" y="1" width="94" height="46" rx="3" fill="#f7f7f5" stroke="#666" stroke-width="2.4"/><g transform="translate(48 73) rotate(0)"><rect x="-15" y="-17" width="30" height="34" rx="6" fill="none" stroke="#777" stroke-width="2"/><line x1="-10" y1="-10" x2="10" y2="-10" stroke="#999" stroke-width="2"/></g></g><text x="125" y="184" text-anchor="middle" font-family="Microsoft YaHei,Noto Sans CJK SC,Arial,sans-serif" font-size="12" fill="#555">1200×600</text><text x="125" y="201" text-anchor="middle" font-family="Microsoft YaHei,Noto Sans CJK SC,Arial,sans-serif" font-size="10" fill="#888">书桌办公</text></g><g transform="translate(42 789)"><rect width="250" height="210" rx="8" fill="#fff" stroke="#ddd"/><text x="14" y="24" font-family="Microsoft YaHei,Noto Sans CJK SC,Arial,sans-serif" font-size="14" font-weight="700">DESK-140｜成长书桌1400</text><g transform="translate(69 76) scale(1)"><rect x="1" y="1" width="110" height="46" rx="3" fill="#f7f7f5" stroke="#666" stroke-width="2.4"/><g transform="translate(56 73) rotate(0)"><rect x="-15" y="-17" width="30" height="34" rx="6" fill="none" stroke="#777" stroke-width="2"/><line x1="-10" y1="-10" x2="10" y2="-10" stroke="#999" stroke-width="2"/></g></g><text x="125" y="184" text-anchor="middle" font-family="Microsoft YaHei,Noto Sans CJK SC,Arial,sans-serif" font-size="12" fill="#555">1400×600</text><text x="125" y="201" text-anchor="middle" font-family="Microsoft YaHei,Noto Sans CJK SC,Arial,sans-serif" font-size="10" fill="#888">书桌办公</text></g><g transform="translate(310 789)"><rect width="250" height="210" rx="8" fill="#fff" stroke="#ddd"/><text x="14" y="24" font-family="Microsoft YaHei,Noto Sans CJK SC,Arial,sans-serif" font-size="14" font-weight="700">DESK-160｜双人书桌1600</text><g transform="translate(61 76) scale(1)"><rect x="1" y="1" width="126" height="46" rx="3" fill="#f7f7f5" stroke="#666" stroke-width="2.4"/><g transform="translate(42.666666666666664 73) rotate(0)"><rect x="-15" y="-17" width="30" height="34" rx="6" fill="none" stroke="#777" stroke-width="2"/><line x1="-10" y1="-10" x2="10" y2="-10" stroke="#999" stroke-width="2"/></g><g transform="translate(85.33333333333333 73) rotate(0)"><rect x="-15" y="-17" width="30" height="34" rx="6" fill="none" stroke="#777" stroke-width="2"/><line x1="-10" y1="-10" x2="10" y2="-10" stroke="#999" stroke-width="2"/></g></g><text x="125" y="184" text-anchor="middle" font-family="Microsoft YaHei,Noto Sans CJK SC,Arial,sans-serif" font-size="12" fill="#555">1600×600</text><text x="125" y="201" text-anchor="middle" font-family="Microsoft YaHei,Noto Sans CJK SC,Arial,sans-serif" font-size="10" fill="#888">书桌办公</text></g><g transform="translate(578 789)"><rect width="250" height="210" rx="8" fill="#fff" stroke="#ddd"/><text x="14" y="24" font-family="Microsoft YaHei,Noto Sans CJK SC,Arial,sans-serif" font-size="14" font-weight="700">SOFA-2｜双人沙发</text><g transform="translate(53 66) scale(1)"><rect x="1" y="1" width="142" height="66" rx="10" fill="#f7f7f5" stroke="#666" stroke-width="2.4"/><rect x="6" y="6" width="132" height="14.96" rx="5" fill="none" stroke="#999" stroke-width="1.8"/><line x1="8" y1="19.040000000000003" x2="8" y2="60" stroke="#999" stroke-width="5"/><line x1="136" y1="19.040000000000003" x2="136" y2="60" stroke="#999" stroke-width="5"/><line x1="72" y1="19.040000000000003" x2="72" y2="64" stroke="#aaa"/></g><text x="125" y="184" text-anchor="middle" font-family="Microsoft YaHei,Noto Sans CJK SC,Arial,sans-serif" font-size="12" fill="#555">1800×850</text><text x="125" y="201" text-anchor="middle" font-family="Microsoft YaHei,Noto Sans CJK SC,Arial,sans-serif" font-size="10" fill="#888">客厅家具</text></g><g transform="translate(846 789)"><rect width="250" height="210" rx="8" fill="#fff" stroke="#ddd"/><text x="14" y="24" font-family="Microsoft YaHei,Noto Sans CJK SC,Arial,sans-serif" font-size="14" font-weight="700">SOFA-3｜三人沙发</text><g transform="translate(37 64) scale(1)"><rect x="1" y="1" width="174" height="70" rx="10" fill="#f7f7f5" stroke="#666" stroke-width="2.4"/><rect x="6" y="6" width="164" height="15.84" rx="5" fill="none" stroke="#999" stroke-width="1.8"/><line x1="8" y1="20.160000000000004" x2="8" y2="64" stroke="#999" stroke-width="5"/><line x1="168" y1="20.160000000000004" x2="168" y2="64" stroke="#999" stroke-width="5"/><line x1="58.666666666666664" y1="20.160000000000004" x2="58.666666666666664" y2="68" stroke="#aaa"/><line x1="117.33333333333333" y1="20.160000000000004" x2="117.33333333333333" y2="68" stroke="#aaa"/></g><text x="125" y="184" text-anchor="middle" font-family="Microsoft YaHei,Noto Sans CJK SC,Arial,sans-serif" font-size="12" fill="#555">2200×900</text><text x="125" y="201" text-anchor="middle" font-family="Microsoft YaHei,Noto Sans CJK SC,Arial,sans-serif" font-size="10" fill="#888">客厅家具</text></g><g transform="translate(1114 789)"><rect width="250" height="210" rx="8" fill="#fff" stroke="#ddd"/><text x="14" y="24" font-family="Microsoft YaHei,Noto Sans CJK SC,Arial,sans-serif" font-size="14" font-weight="700">TV-40｜电视柜</text><g transform="translate(45 84) scale(1)"><rect x="1" y="1" width="158" height="30" fill="#eee" stroke="#666" stroke-width="2.4"/><line x1="53.333333333333336" y1="2" x2="53.333333333333336" y2="30" stroke="#aaa"/><line x1="106.66666666666667" y1="2" x2="106.66666666666667" y2="30" stroke="#aaa"/></g><text x="125" y="184" text-anchor="middle" font-family="Microsoft YaHei,Noto Sans CJK SC,Arial,sans-serif" font-size="12" fill="#555">2000×400</text><text x="125" y="201" text-anchor="middle" font-family="Microsoft YaHei,Noto Sans CJK SC,Arial,sans-serif" font-size="10" fill="#888">客厅家具</text></g><g transform="translate(1382 789)"><rect width="250" height="210" rx="8" fill="#fff" stroke="#ddd"/><text x="14" y="24" font-family="Microsoft YaHei,Noto Sans CJK SC,Arial,sans-serif" font-size="14" font-weight="700">CHAIR-L｜休闲单椅</text><g transform="translate(95 68) scale(1)"><rect x="1" y="1" width="58" height="62" rx="12" fill="#f7f7f5" stroke="#666" stroke-width="2.4"/><rect x="7" y="7" width="46" height="16" rx="5" fill="none" stroke="#999" stroke-width="2"/></g><text x="125" y="184" text-anchor="middle" font-family="Microsoft YaHei,Noto Sans CJK SC,Arial,sans-serif" font-size="12" fill="#555">750×800</text><text x="125" y="201" text-anchor="middle" font-family="Microsoft YaHei,Noto Sans CJK SC,Arial,sans-serif" font-size="10" fill="#888">客厅家具</text></g><g transform="translate(42 1017)"><rect width="250" height="210" rx="8" fill="#fff" stroke="#ddd"/><text x="14" y="24" font-family="Microsoft YaHei,Noto Sans CJK SC,Arial,sans-serif" font-size="14" font-weight="700">CT-120｜长茶几</text><g transform="translate(77 76) scale(1)"><rect x="1" y="1" width="94" height="46" rx="8" fill="#f7f7f5" stroke="#666" stroke-width="2.4"/></g><text x="125" y="184" text-anchor="middle" font-family="Microsoft YaHei,Noto Sans CJK SC,Arial,sans-serif" font-size="12" fill="#555">1200×600</text><text x="125" y="201" text-anchor="middle" font-family="Microsoft YaHei,Noto Sans CJK SC,Arial,sans-serif" font-size="10" fill="#888">客厅家具</text></g><g transform="translate(310 1017)"><rect width="250" height="210" rx="8" fill="#fff" stroke="#ddd"/><text x="14" y="24" font-family="Microsoft YaHei,Noto Sans CJK SC,Arial,sans-serif" font-size="14" font-weight="700">CT-R70｜圆茶几</text><g transform="translate(97 72) scale(1)"><circle cx="28" cy="28" r="26" fill="#f7f7f5" stroke="#666" stroke-width="2.4"/></g><text x="125" y="184" text-anchor="middle" font-family="Microsoft YaHei,Noto Sans CJK SC,Arial,sans-serif" font-size="12" fill="#555">700×700</text><text x="125" y="201" text-anchor="middle" font-family="Microsoft YaHei,Noto Sans CJK SC,Arial,sans-serif" font-size="10" fill="#888">客厅家具</text></g><g transform="translate(578 1017)"><rect width="250" height="210" rx="8" fill="#fff" stroke="#ddd"/><text x="14" y="24" font-family="Microsoft YaHei,Noto Sans CJK SC,Arial,sans-serif" font-size="14" font-weight="700">DT-4-140｜四人餐桌1400</text><g transform="translate(69 68) scale(1)"><rect x="1" y="1" width="110" height="62" rx="7" fill="#f7f7f5" stroke="#666" stroke-width="2.4"/><g transform="translate(31.360000000000003 -18) rotate(0)"><rect x="-17" y="-19" width="34" height="38" rx="6" fill="none" stroke="#777" stroke-width="2"/><line x1="-12" y1="-12" x2="12" y2="-12" stroke="#999" stroke-width="2"/></g><g transform="translate(80.64 -18) rotate(0)"><rect x="-17" y="-19" width="34" height="38" rx="6" fill="none" stroke="#777" stroke-width="2"/><line x1="-12" y1="-12" x2="12" y2="-12" stroke="#999" stroke-width="2"/></g><g transform="translate(31.360000000000003 82) rotate(180)"><rect x="-17" y="-19" width="34" height="38" rx="6" fill="none" stroke="#777" stroke-width="2"/><line x1="-12" y1="-12" x2="12" y2="-12" stroke="#999" stroke-width="2"/></g><g transform="translate(80.64 82) rotate(180)"><rect x="-17" y="-19" width="34" height="38" rx="6" fill="none" stroke="#777" stroke-width="2"/><line x1="-12" y1="-12" x2="12" y2="-12" stroke="#999" stroke-width="2"/></g></g><text x="125" y="184" text-anchor="middle" font-family="Microsoft YaHei,Noto Sans CJK SC,Arial,sans-serif" font-size="12" fill="#555">1400×800</text><text x="125" y="201" text-anchor="middle" font-family="Microsoft YaHei,Noto Sans CJK SC,Arial,sans-serif" font-size="10" fill="#888">餐厅家具</text></g><g transform="translate(846 1017)"><rect width="250" height="210" rx="8" fill="#fff" stroke="#ddd"/><text x="14" y="24" font-family="Microsoft YaHei,Noto Sans CJK SC,Arial,sans-serif" font-size="14" font-weight="700">DT-6-160｜六人餐桌1600</text><g transform="translate(61 68) scale(1)"><rect x="1" y="1" width="126" height="62" rx="7" fill="#f7f7f5" stroke="#666" stroke-width="2.4"/><g transform="translate(35.84 -18) rotate(0)"><rect x="-17" y="-19" width="34" height="38" rx="6" fill="none" stroke="#777" stroke-width="2"/><line x1="-12" y1="-12" x2="12" y2="-12" stroke="#999" stroke-width="2"/></g><g transform="translate(92.16 -18) rotate(0)"><rect x="-17" y="-19" width="34" height="38" rx="6" fill="none" stroke="#777" stroke-width="2"/><line x1="-12" y1="-12" x2="12" y2="-12" stroke="#999" stroke-width="2"/></g><g transform="translate(35.84 82) rotate(180)"><rect x="-17" y="-19" width="34" height="38" rx="6" fill="none" stroke="#777" stroke-width="2"/><line x1="-12" y1="-12" x2="12" y2="-12" stroke="#999" stroke-width="2"/></g><g transform="translate(92.16 82) rotate(180)"><rect x="-17" y="-19" width="34" height="38" rx="6" fill="none" stroke="#777" stroke-width="2"/><line x1="-12" y1="-12" x2="12" y2="-12" stroke="#999" stroke-width="2"/></g><g transform="translate(-18 32) rotate(90)"><rect x="-17" y="-19" width="34" height="38" rx="6" fill="none" stroke="#777" stroke-width="2"/><line x1="-12" y1="-12" x2="12" y2="-12" stroke="#999" stroke-width="2"/></g><g transform="translate(146 32) rotate(-90)"><rect x="-17" y="-19" width="34" height="38" rx="6" fill="none" stroke="#777" stroke-width="2"/><line x1="-12" y1="-12" x2="12" y2="-12" stroke="#999" stroke-width="2"/></g></g><text x="125" y="184" text-anchor="middle" font-family="Microsoft YaHei,Noto Sans CJK SC,Arial,sans-serif" font-size="12" fill="#555">1600×800</text><text x="125" y="201" text-anchor="middle" font-family="Microsoft YaHei,Noto Sans CJK SC,Arial,sans-serif" font-size="10" fill="#888">餐厅家具</text></g><g transform="translate(1114 1017)"><rect width="250" height="210" rx="8" fill="#fff" stroke="#ddd"/><text x="14" y="24" font-family="Microsoft YaHei,Noto Sans CJK SC,Arial,sans-serif" font-size="14" font-weight="700">DT-R100｜四人圆桌1000</text><g transform="translate(85 60) scale(1)"><circle cx="40" cy="40" r="38" fill="#f7f7f5" stroke="#666" stroke-width="2.4"/><g transform="translate(40 -18) rotate(0)"><rect x="-17" y="-19" width="34" height="38" rx="6" fill="none" stroke="#777" stroke-width="2"/><line x1="-12" y1="-12" x2="12" y2="-12" stroke="#999" stroke-width="2"/></g><g transform="translate(40 98) rotate(180)"><rect x="-17" y="-19" width="34" height="38" rx="6" fill="none" stroke="#777" stroke-width="2"/><line x1="-12" y1="-12" x2="12" y2="-12" stroke="#999" stroke-width="2"/></g><g transform="translate(-18 40) rotate(90)"><rect x="-17" y="-19" width="34" height="38" rx="6" fill="none" stroke="#777" stroke-width="2"/><line x1="-12" y1="-12" x2="12" y2="-12" stroke="#999" stroke-width="2"/></g><g transform="translate(98 40) rotate(-90)"><rect x="-17" y="-19" width="34" height="38" rx="6" fill="none" stroke="#777" stroke-width="2"/><line x1="-12" y1="-12" x2="12" y2="-12" stroke="#999" stroke-width="2"/></g></g><text x="125" y="184" text-anchor="middle" font-family="Microsoft YaHei,Noto Sans CJK SC,Arial,sans-serif" font-size="12" fill="#555">1000×1000</text><text x="125" y="201" text-anchor="middle" font-family="Microsoft YaHei,Noto Sans CJK SC,Arial,sans-serif" font-size="10" fill="#888">餐厅家具</text></g><g transform="translate(1382 1017)"><rect width="250" height="210" rx="8" fill="#fff" stroke="#ddd"/><text x="14" y="24" font-family="Microsoft YaHei,Noto Sans CJK SC,Arial,sans-serif" font-size="14" font-weight="700">FRIDGE-60｜常规冰箱</text><g transform="translate(101 74) scale(1)"><rect x="1" y="1" width="46" height="50" fill="#f7f7f5" stroke="#666" stroke-width="2.4"/><path d="M2 50 A44 44 0 0 1 46 2" fill="none" stroke="#999" stroke-width="1.5" stroke-dasharray="5 4"/></g><text x="125" y="184" text-anchor="middle" font-family="Microsoft YaHei,Noto Sans CJK SC,Arial,sans-serif" font-size="12" fill="#555">600×650</text><text x="125" y="201" text-anchor="middle" font-family="Microsoft YaHei,Noto Sans CJK SC,Arial,sans-serif" font-size="10" fill="#888">家电</text></g><g transform="translate(42 1245)"><rect width="250" height="210" rx="8" fill="#fff" stroke="#ddd"/><text x="14" y="24" font-family="Microsoft YaHei,Noto Sans CJK SC,Arial,sans-serif" font-size="14" font-weight="700">FRIDGE-90｜对开门冰箱</text><g transform="translate(89 70) scale(1)"><rect x="1" y="1" width="70" height="58" fill="#f7f7f5" stroke="#666" stroke-width="2.4"/><line x1="36" y1="2" x2="36" y2="58" stroke="#999" stroke-width="2"/></g><text x="125" y="184" text-anchor="middle" font-family="Microsoft YaHei,Noto Sans CJK SC,Arial,sans-serif" font-size="12" fill="#555">900×750</text><text x="125" y="201" text-anchor="middle" font-family="Microsoft YaHei,Noto Sans CJK SC,Arial,sans-serif" font-size="10" fill="#888">家电</text></g><g transform="translate(310 1245)"><rect width="250" height="210" rx="8" fill="#fff" stroke="#ddd"/><text x="14" y="24" font-family="Microsoft YaHei,Noto Sans CJK SC,Arial,sans-serif" font-size="14" font-weight="700">DW-60｜洗碗机</text><g transform="translate(101 76) scale(1)"><rect x="1" y="1" width="46" height="46" fill="#f7f7f5" stroke="#666" stroke-width="2.4"/><circle cx="24" cy="24" r="13.440000000000001" fill="none" stroke="#999" stroke-width="2"/></g><text x="125" y="184" text-anchor="middle" font-family="Microsoft YaHei,Noto Sans CJK SC,Arial,sans-serif" font-size="12" fill="#555">600×600</text><text x="125" y="201" text-anchor="middle" font-family="Microsoft YaHei,Noto Sans CJK SC,Arial,sans-serif" font-size="10" fill="#888">家电</text></g><g transform="translate(578 1245)"><rect width="250" height="210" rx="8" fill="#fff" stroke="#ddd"/><text x="14" y="24" font-family="Microsoft YaHei,Noto Sans CJK SC,Arial,sans-serif" font-size="14" font-weight="700">WM-60｜洗衣机</text><g transform="translate(101 74) scale(1)"><rect x="1" y="1" width="46" height="50" fill="#f7f7f5" stroke="#666" stroke-width="2.4"/><circle cx="24" cy="26" r="13.440000000000001" fill="none" stroke="#999" stroke-width="2"/></g><text x="125" y="184" text-anchor="middle" font-family="Microsoft YaHei,Noto Sans CJK SC,Arial,sans-serif" font-size="12" fill="#555">600×650</text><text x="125" y="201" text-anchor="middle" font-family="Microsoft YaHei,Noto Sans CJK SC,Arial,sans-serif" font-size="10" fill="#888">家电</text></g><g transform="translate(846 1245)"><rect width="250" height="210" rx="8" fill="#fff" stroke="#ddd"/><text x="14" y="24" font-family="Microsoft YaHei,Noto Sans CJK SC,Arial,sans-serif" font-size="14" font-weight="700">STACK-WD｜洗烘叠放</text><g transform="translate(99 72) scale(1)"><rect x="1" y="1" width="50" height="54" fill="#f7f7f5" stroke="#666" stroke-width="2.4"/><circle cx="17.16" cy="28" r="11.44" fill="none" stroke="#999" stroke-width="2"/><circle cx="36.4" cy="28" r="11.44" fill="none" stroke="#999" stroke-width="2"/></g><text x="125" y="184" text-anchor="middle" font-family="Microsoft YaHei,Noto Sans CJK SC,Arial,sans-serif" font-size="12" fill="#555">650×700</text><text x="125" y="201" text-anchor="middle" font-family="Microsoft YaHei,Noto Sans CJK SC,Arial,sans-serif" font-size="10" fill="#888">家电</text></g><g transform="translate(1114 1245)"><rect width="250" height="210" rx="8" fill="#fff" stroke="#ddd"/><text x="14" y="24" font-family="Microsoft YaHei,Noto Sans CJK SC,Arial,sans-serif" font-size="14" font-weight="700">WC｜马桶</text><g transform="translate(109 72) scale(1)"><rect x="8" y="2" width="16" height="12.32" rx="3" fill="none" stroke="#666" stroke-width="2"/><ellipse cx="16" cy="34.72" rx="10.24" ry="17.92" fill="none" stroke="#666" stroke-width="2.4"/><ellipse cx="16" cy="34.72" rx="5.76" ry="11.200000000000001" fill="none" stroke="#aaa" stroke-width="1.5"/></g><text x="125" y="184" text-anchor="middle" font-family="Microsoft YaHei,Noto Sans CJK SC,Arial,sans-serif" font-size="12" fill="#555">400×700</text><text x="125" y="201" text-anchor="middle" font-family="Microsoft YaHei,Noto Sans CJK SC,Arial,sans-serif" font-size="10" fill="#888">卫浴</text></g><g transform="translate(1382 1245)"><rect width="250" height="210" rx="8" fill="#fff" stroke="#ddd"/><text x="14" y="24" font-family="Microsoft YaHei,Noto Sans CJK SC,Arial,sans-serif" font-size="14" font-weight="700">BASIN-80｜洗手台800</text><g transform="translate(93 78) scale(1)"><rect x="1" y="1" width="62" height="42" rx="4" fill="#f7f7f5" stroke="#666" stroke-width="2.4"/><ellipse cx="32" cy="22" rx="17.92" ry="12.32" fill="none" stroke="#999" stroke-width="2"/><circle cx="32" cy="8.8" r="3" fill="#888"/></g><text x="125" y="184" text-anchor="middle" font-family="Microsoft YaHei,Noto Sans CJK SC,Arial,sans-serif" font-size="12" fill="#555">800×550</text><text x="125" y="201" text-anchor="middle" font-family="Microsoft YaHei,Noto Sans CJK SC,Arial,sans-serif" font-size="10" fill="#888">卫浴</text></g><g transform="translate(42 1473)"><rect width="250" height="210" rx="8" fill="#fff" stroke="#ddd"/><text x="14" y="24" font-family="Microsoft YaHei,Noto Sans CJK SC,Arial,sans-serif" font-size="14" font-weight="700">SHOWER-90｜淋浴区900</text><g transform="translate(89 64) scale(1)"><rect x="1" y="1" width="70" height="70" fill="none" stroke="#666" stroke-width="2.4"/><line x1="2" y1="2" x2="70" y2="70" stroke="#bbb"/><line x1="70" y1="2" x2="2" y2="70" stroke="#bbb"/><circle cx="54" cy="18" r="4" fill="none" stroke="#888"/></g><text x="125" y="184" text-anchor="middle" font-family="Microsoft YaHei,Noto Sans CJK SC,Arial,sans-serif" font-size="12" fill="#555">900×900</text><text x="125" y="201" text-anchor="middle" font-family="Microsoft YaHei,Noto Sans CJK SC,Arial,sans-serif" font-size="10" fill="#888">卫浴</text></g></svg>